# xmcd
#
# Track frame offsets:
#	150
#	14141
#	24841
#	38235
#	51953
#	62678
#	77205
#	91384
#	107233
#	122382
#	135916
#	145167
#	155490
#	170171
#	182075
#	188784
#	200288
#	212297
#
# Disc length: 3031 seconds
#
# Revision: 0
# Processed by: cddbd v1.5.2PL0 Copyright (c) Steve Scherf et al.
# Submitted via: audiograbber 1.83.01
#
DISCID=f20bd512
DTITLE=Various Artist - Songs From Uttam Kumar - Suchitra Sen Starrers
DYEAR=1900
DGENRE=Bengali Film
TTITLE0=Gaane Mor Kon Indradhanu
TTITLE1=Jadi Bhool Korei Bhool Madhur Holo
TTITLE2=Jibon Nadir Joar Bhatay
TTITLE3=Aaj Achhi Kaal Kothay
TTITLE4=Phooler Kane Bhramar Aane
TTITLE5=Ke Tumi Amare Dako
TTITLE6=Ghoom Ghoom Chand Jhikimiki
TTITLE7=Janina Phurabe Kabey Ei Path Chaoa
TTITLE8=Tumi Je Amar
TTITLE9=Aaj Dujanar Duti Path
TTITLE10=Amra Medical College Pari
TTITLE11=Amar Swapne Dekha Rajkanya
TTITLE12=Ei To Amar Pratham Fagun Bela
TTITLE13=Hriday Amar Sundar Tabo
TTITLE14=Swapna Bhara Dinguli Mor Jay Bhese
TTITLE15=Tabo Bijoy Mukut Ajike Dekhi
TTITLE16=Ei Madhuraat Sudhu Phool Papiar
TTITLE17=Ankhi Jaane Phool Keno Phote
EXTD=
EXTT0=
EXTT1=
EXTT2=
EXTT3=
EXTT4=
EXTT5=
EXTT6=
EXTT7=
EXTT8=
EXTT9=
EXTT10=
EXTT11=
EXTT12=
EXTT13=
EXTT14=
EXTT15=
EXTT16=
EXTT17=
PLAYORDER=
